<svg width="784" height="89" viewBox="0 0 784 89" fill="none" xmlns="http://www.w3.org/2000/svg">
<g filter="url(#filter0_d_1_11163)">
<rect x="569" y="0.910645" width="200" height="58.0894" rx="2" fill="#E3B873"/>
</g>
<path d="M649.341 36.8077C648.621 36.8077 647.971 36.7167 647.391 36.5347C646.81 36.344 646.307 36.071 645.883 35.7157L646.26 34.8577C646.702 35.1957 647.165 35.447 647.651 35.6117C648.136 35.7763 648.699 35.8587 649.341 35.8587C650.121 35.8587 650.697 35.7157 651.07 35.4297C651.451 35.135 651.642 34.7493 651.642 34.2727C651.642 33.8913 651.503 33.588 651.226 33.3627C650.957 33.1373 650.502 32.9597 649.861 32.8297L648.509 32.5567C647.694 32.3833 647.083 32.1017 646.676 31.7117C646.277 31.313 646.078 30.7843 646.078 30.1257C646.078 29.5797 646.216 29.103 646.494 28.6957C646.78 28.2883 647.174 27.972 647.677 27.7467C648.179 27.5213 648.76 27.4087 649.419 27.4087C650.034 27.4087 650.606 27.5083 651.135 27.7077C651.663 27.8983 652.11 28.1757 652.474 28.5397L652.097 29.3717C651.707 29.0163 651.295 28.7607 650.862 28.6047C650.428 28.44 649.943 28.3577 649.406 28.3577C648.721 28.3577 648.175 28.518 647.768 28.8387C647.36 29.1507 647.157 29.5667 647.157 30.0867C647.157 30.5027 647.282 30.832 647.534 31.0747C647.794 31.3173 648.214 31.495 648.795 31.6077L650.147 31.8937C651.022 32.0757 651.668 32.353 652.084 32.7257C652.508 33.0897 652.721 33.588 652.721 34.2207C652.721 34.732 652.582 35.1827 652.305 35.5727C652.036 35.9627 651.646 36.266 651.135 36.4827C650.632 36.6993 650.034 36.8077 649.341 36.8077ZM657.989 36.8077C656.784 36.8077 655.87 36.4913 655.246 35.8587C654.622 35.2173 654.31 34.2857 654.31 33.0637V27.5257H655.376V33.0117C655.376 34.9097 656.247 35.8587 657.989 35.8587C659.713 35.8587 660.576 34.9097 660.576 33.0117V27.5257H661.642V33.0637C661.642 34.2857 661.33 35.2173 660.706 35.8587C660.09 36.4913 659.185 36.8077 657.989 36.8077ZM663.833 36.6907V27.5257H667.499C668.443 27.5257 669.171 27.738 669.683 28.1627C670.203 28.5787 670.463 29.1637 670.463 29.9177C670.463 30.4203 670.333 30.8493 670.073 31.2047C669.813 31.56 669.453 31.82 668.994 31.9847C669.522 32.1233 669.934 32.379 670.229 32.7517C670.532 33.1243 670.684 33.5967 670.684 34.1687C670.684 34.9833 670.419 35.6073 669.891 36.0407C669.362 36.474 668.617 36.6907 667.655 36.6907H663.833ZM664.873 31.6207H667.343C668.721 31.6207 669.41 31.0833 669.41 30.0087C669.41 28.9253 668.721 28.3837 667.343 28.3837H664.873V31.6207ZM664.873 35.8327H667.551C668.937 35.8327 669.631 35.2737 669.631 34.1557C669.631 33.0377 668.937 32.4787 667.551 32.4787H664.873V35.8327ZM672.644 36.6907V27.5257H673.541L677.064 34.1427L680.561 27.5257H681.458V36.6907H680.47V29.5277L677.415 35.2737H676.713L673.619 29.5407V36.6907H672.644ZM683.739 36.6907V27.5257H684.805V36.6907H683.739ZM689.314 36.6907V28.4487H685.986V27.5257H693.721V28.4487H690.393V36.6907H689.314Z" fill="white"/>
<rect x="0.284752" y="-0.284752" width="230.43" height="0.569503" transform="matrix(1 0 0 -1 3.05176e-05 53.8746)" stroke="#363636" stroke-opacity="0.3" stroke-width="0.569503"/>
<path d="M3.87803 38.8298L0.420031 28.9598H1.62403L4.41003 37.1498L7.26603 28.9598H8.19003L11.018 37.2198L13.86 28.9598H15.008L11.55 38.8298H10.528L7.71403 30.7098L4.87203 38.8298H3.87803ZM16.4722 38.8298V28.9598H17.6062V33.1458C17.8302 32.7352 18.1429 32.4272 18.5442 32.2218C18.9549 32.0072 19.4122 31.8998 19.9162 31.8998C21.5309 31.8998 22.3382 32.7958 22.3382 34.5878V38.8298H21.2042V34.6578C21.2042 34.0232 21.0782 33.5612 20.8262 33.2718C20.5836 32.9732 20.1916 32.8238 19.6502 32.8238C19.0249 32.8238 18.5256 33.0198 18.1522 33.4118C17.7882 33.7945 17.6062 34.3078 17.6062 34.9518V38.8298H16.4722ZM26.5713 38.9558C26.1046 38.9558 25.6846 38.8672 25.3113 38.6898C24.9473 38.5032 24.6579 38.2512 24.4433 37.9338C24.2286 37.6165 24.1213 37.2618 24.1213 36.8698C24.1213 36.3752 24.2473 35.9832 24.4993 35.6938C24.7606 35.4045 25.1853 35.1992 25.7733 35.0778C26.3706 34.9472 27.1826 34.8818 28.2093 34.8818H28.6573V34.4478C28.6573 33.8692 28.5359 33.4538 28.2933 33.2018C28.0599 32.9405 27.6819 32.8098 27.1593 32.8098C26.7486 32.8098 26.3519 32.8705 25.9693 32.9918C25.5866 33.1038 25.1946 33.2905 24.7933 33.5518L24.4013 32.7258C24.7559 32.4738 25.1853 32.2732 25.6893 32.1238C26.2026 31.9745 26.6926 31.8998 27.1593 31.8998C28.0366 31.8998 28.6853 32.1145 29.1053 32.5438C29.5346 32.9732 29.7493 33.6405 29.7493 34.5458V38.8298H28.6853V37.6538C28.5079 38.0552 28.2326 38.3725 27.8593 38.6058C27.4953 38.8392 27.0659 38.9558 26.5713 38.9558ZM26.7533 38.1018C27.3133 38.1018 27.7706 37.9105 28.1253 37.5278C28.4799 37.1358 28.6573 36.6412 28.6573 36.0438V35.6238H28.2233C27.4673 35.6238 26.8699 35.6612 26.4313 35.7358C26.0019 35.8012 25.6986 35.9225 25.5213 36.0998C25.3533 36.2678 25.2693 36.5012 25.2693 36.7998C25.2693 37.1825 25.3999 37.4952 25.6613 37.7378C25.9319 37.9805 26.2959 38.1018 26.7533 38.1018ZM34.5831 38.9558C33.7804 38.9558 33.1784 38.7458 32.7771 38.3258C32.3758 37.8965 32.1751 37.2805 32.1751 36.4778V32.9078H30.8451V32.0258H32.1751V29.9398H33.3091V32.0258H35.4651V32.9078H33.3091V36.3658C33.3091 36.8978 33.4211 37.3038 33.6451 37.5838C33.8691 37.8545 34.2331 37.9898 34.7371 37.9898C34.8864 37.9898 35.0358 37.9712 35.1851 37.9338C35.3344 37.8965 35.4698 37.8592 35.5911 37.8218L35.7871 38.6898C35.6658 38.7552 35.4884 38.8158 35.2551 38.8718C35.0218 38.9278 34.7978 38.9558 34.5831 38.9558ZM40.2033 30.3318V29.0578H41.6033V30.3318H40.2033ZM40.3433 38.8298V32.0258H41.4773V38.8298H40.3433ZM45.8932 38.9558C45.3612 38.9558 44.8572 38.8812 44.3812 38.7318C43.9052 38.5825 43.5132 38.3725 43.2052 38.1018L43.5692 37.3038C43.9052 37.5745 44.2739 37.7752 44.6752 37.9058C45.0859 38.0272 45.5012 38.0878 45.9212 38.0878C46.4532 38.0878 46.8546 37.9898 47.1252 37.7938C47.3959 37.5978 47.5312 37.3318 47.5312 36.9958C47.5312 36.7345 47.4426 36.5292 47.2652 36.3798C47.0879 36.2212 46.8079 36.0998 46.4252 36.0158L45.1512 35.7358C43.9939 35.4838 43.4152 34.8865 43.4152 33.9438C43.4152 33.3278 43.6579 32.8332 44.1432 32.4598C44.6379 32.0865 45.2819 31.8998 46.0752 31.8998C46.5419 31.8998 46.9852 31.9745 47.4052 32.1238C47.8346 32.2638 48.1892 32.4738 48.4692 32.7538L48.0912 33.5518C47.8206 33.2998 47.5032 33.1085 47.1392 32.9778C46.7846 32.8378 46.4299 32.7678 46.0752 32.7678C45.5526 32.7678 45.1559 32.8705 44.8852 33.0758C44.6146 33.2812 44.4792 33.5518 44.4792 33.8878C44.4792 34.4105 44.8246 34.7465 45.5152 34.8958L46.7892 35.1618C47.3866 35.2925 47.8392 35.5025 48.1472 35.7918C48.4552 36.0718 48.6092 36.4545 48.6092 36.9398C48.6092 37.5652 48.3619 38.0598 47.8672 38.4238C47.3726 38.7785 46.7146 38.9558 45.8932 38.9558ZM54.7172 41.3498L55.8792 38.7178L53.0092 32.0258H54.2412L56.4952 37.5418L58.7632 32.0258H59.9532L55.9072 41.3498H54.7172ZM63.8569 38.9558C63.1942 38.9558 62.6202 38.8112 62.1349 38.5218C61.6495 38.2325 61.2715 37.8265 61.0009 37.3038C60.7395 36.7718 60.6089 36.1465 60.6089 35.4278C60.6089 34.7092 60.7395 34.0885 61.0009 33.5658C61.2715 33.0338 61.6495 32.6232 62.1349 32.3338C62.6202 32.0445 63.1942 31.8998 63.8569 31.8998C64.5102 31.8998 65.0795 32.0445 65.5649 32.3338C66.0595 32.6232 66.4375 33.0338 66.6989 33.5658C66.9695 34.0885 67.1049 34.7092 67.1049 35.4278C67.1049 36.1465 66.9695 36.7718 66.6989 37.3038C66.4375 37.8265 66.0595 38.2325 65.5649 38.5218C65.0795 38.8112 64.5102 38.9558 63.8569 38.9558ZM63.8569 38.0458C64.4915 38.0458 65.0002 37.8218 65.3829 37.3738C65.7655 36.9165 65.9569 36.2678 65.9569 35.4278C65.9569 34.5785 65.7655 33.9298 65.3829 33.4818C65.0002 33.0338 64.4915 32.8098 63.8569 32.8098C63.2129 32.8098 62.6995 33.0338 62.3169 33.4818C61.9435 33.9298 61.7569 34.5785 61.7569 35.4278C61.7569 36.2678 61.9435 36.9165 62.3169 37.3738C62.6995 37.8218 63.2129 38.0458 63.8569 38.0458ZM71.2162 38.9558C69.5828 38.9558 68.7662 38.0552 68.7662 36.2538V32.0258H69.9002V36.2398C69.9002 36.8465 70.0215 37.2945 70.2642 37.5838C70.5162 37.8732 70.9082 38.0178 71.4402 38.0178C72.0188 38.0178 72.4902 37.8265 72.8542 37.4438C73.2182 37.0518 73.4002 36.5338 73.4002 35.8898V32.0258H74.5342V38.8298H73.4282V37.6818C73.2135 38.0925 72.9102 38.4098 72.5182 38.6338C72.1355 38.8485 71.7015 38.9558 71.2162 38.9558ZM76.6558 38.8298V32.0258H77.7618V33.2438C78.1258 32.4225 78.8725 31.9698 80.0018 31.8858L80.4078 31.8438L80.4918 32.8238L79.7778 32.9078C79.1338 32.9638 78.6438 33.1692 78.3078 33.5238C77.9718 33.8692 77.8038 34.3452 77.8038 34.9518V38.8298H76.6558ZM85.2691 38.8298V32.0258H86.3751V33.1878C86.5991 32.7585 86.9164 32.4365 87.3271 32.2218C87.7378 32.0072 88.1998 31.8998 88.7131 31.8998C90.3278 31.8998 91.1351 32.7958 91.1351 34.5878V38.8298H90.0011V34.6578C90.0011 34.0232 89.8751 33.5612 89.6231 33.2718C89.3804 32.9732 88.9884 32.8238 88.4471 32.8238C87.8218 32.8238 87.3224 33.0198 86.9491 33.4118C86.5851 33.7945 86.4031 34.3078 86.4031 34.9518V38.8298H85.2691ZM95.3681 38.9558C94.9015 38.9558 94.4815 38.8672 94.1081 38.6898C93.7441 38.5032 93.4548 38.2512 93.2401 37.9338C93.0255 37.6165 92.9181 37.2618 92.9181 36.8698C92.9181 36.3752 93.0441 35.9832 93.2961 35.6938C93.5575 35.4045 93.9821 35.1992 94.5701 35.0778C95.1675 34.9472 95.9795 34.8818 97.0061 34.8818H97.4541V34.4478C97.4541 33.8692 97.3328 33.4538 97.0901 33.2018C96.8568 32.9405 96.4788 32.8098 95.9561 32.8098C95.5455 32.8098 95.1488 32.8705 94.7661 32.9918C94.3835 33.1038 93.9915 33.2905 93.5901 33.5518L93.1981 32.7258C93.5528 32.4738 93.9821 32.2732 94.4861 32.1238C94.9995 31.9745 95.4895 31.8998 95.9561 31.8998C96.8335 31.8998 97.4821 32.1145 97.9021 32.5438C98.3315 32.9732 98.5461 33.6405 98.5461 34.5458V38.8298H97.4821V37.6538C97.3048 38.0552 97.0295 38.3725 96.6561 38.6058C96.2921 38.8392 95.8628 38.9558 95.3681 38.9558ZM95.5501 38.1018C96.1101 38.1018 96.5675 37.9105 96.9221 37.5278C97.2768 37.1358 97.4541 36.6412 97.4541 36.0438V35.6238H97.0201C96.2641 35.6238 95.6668 35.6612 95.2281 35.7358C94.7988 35.8012 94.4955 35.9225 94.3181 36.0998C94.1501 36.2678 94.0661 36.5012 94.0661 36.7998C94.0661 37.1825 94.1968 37.4952 94.4581 37.7378C94.7288 37.9805 95.0928 38.1018 95.5501 38.1018ZM100.678 38.8298V32.0258H101.784V33.1738C101.989 32.7632 102.274 32.4505 102.638 32.2358C103.002 32.0118 103.427 31.8998 103.912 31.8998C104.976 31.8998 105.657 32.3618 105.956 33.2858C106.161 32.8565 106.465 32.5205 106.866 32.2778C107.267 32.0258 107.729 31.8998 108.252 31.8998C109.764 31.8998 110.52 32.7958 110.52 34.5878V38.8298H109.386V34.6438C109.386 34.0185 109.274 33.5612 109.05 33.2718C108.835 32.9732 108.476 32.8238 107.972 32.8238C107.421 32.8238 106.983 33.0198 106.656 33.4118C106.329 33.8038 106.166 34.3265 106.166 34.9798V38.8298H105.032V34.6438C105.032 34.0185 104.92 33.5612 104.696 33.2718C104.481 32.9732 104.122 32.8238 103.618 32.8238C103.058 32.8238 102.615 33.0198 102.288 33.4118C101.971 33.8038 101.812 34.3265 101.812 34.9798V38.8298H100.678ZM115.706 38.9558C114.633 38.9558 113.784 38.6432 113.158 38.0178C112.533 37.3832 112.22 36.5245 112.22 35.4418C112.22 34.7418 112.36 34.1258 112.64 33.5938C112.92 33.0525 113.303 32.6372 113.788 32.3478C114.283 32.0492 114.852 31.8998 115.496 31.8998C116.42 31.8998 117.144 32.1985 117.666 32.7958C118.189 33.3838 118.45 34.1958 118.45 35.2318V35.6658H113.326C113.364 36.4405 113.588 37.0332 113.998 37.4438C114.409 37.8452 114.978 38.0458 115.706 38.0458C116.117 38.0458 116.509 37.9852 116.882 37.8638C117.256 37.7332 117.61 37.5232 117.946 37.2338L118.338 38.0318C118.03 38.3212 117.638 38.5498 117.162 38.7178C116.686 38.8765 116.201 38.9558 115.706 38.9558ZM115.524 32.7398C114.88 32.7398 114.372 32.9405 113.998 33.3418C113.625 33.7432 113.406 34.2705 113.34 34.9238H117.47C117.442 34.2332 117.26 33.6965 116.924 33.3138C116.598 32.9312 116.131 32.7398 115.524 32.7398ZM119.909 33.4538V32.0258H121.337V33.4538H119.909ZM119.909 38.8298V37.4018H121.337V38.8298H119.909Z" fill="#363636"/>
<path d="M1.13103 16.1887V7.02372H1.96303L7.48803 14.3947V7.02372H8.47603V16.1887H7.67003L2.13203 8.79172V16.1887H1.13103ZM12.6001 16.3057C12.1667 16.3057 11.7767 16.2234 11.4301 16.0587C11.0921 15.8854 10.8234 15.6514 10.6241 15.3567C10.4247 15.0621 10.3251 14.7327 10.3251 14.3687C10.3251 13.9094 10.4421 13.5454 10.6761 13.2767C10.9187 13.0081 11.3131 12.8174 11.8591 12.7047C12.4137 12.5834 13.1677 12.5227 14.1211 12.5227H14.5371V12.1197C14.5371 11.5824 14.4244 11.1967 14.1991 10.9627C13.9824 10.7201 13.6314 10.5987 13.1461 10.5987C12.7647 10.5987 12.3964 10.6551 12.0411 10.7677C11.6857 10.8717 11.3217 11.0451 10.9491 11.2877L10.5851 10.5207C10.9144 10.2867 11.3131 10.1004 11.7811 9.96172C12.2577 9.82305 12.7127 9.75372 13.1461 9.75372C13.9607 9.75372 14.5631 9.95305 14.9531 10.3517C15.3517 10.7504 15.5511 11.3701 15.5511 12.2107V16.1887H14.5631V15.0967C14.3984 15.4694 14.1427 15.7641 13.7961 15.9807C13.4581 16.1974 13.0594 16.3057 12.6001 16.3057ZM12.7691 15.5127C13.2891 15.5127 13.7137 15.3351 14.0431 14.9797C14.3724 14.6157 14.5371 14.1564 14.5371 13.6017V13.2117H14.1341C13.4321 13.2117 12.8774 13.2464 12.4701 13.3157C12.0714 13.3764 11.7897 13.4891 11.6251 13.6537C11.4691 13.8097 11.3911 14.0264 11.3911 14.3037C11.3911 14.6591 11.5124 14.9494 11.7551 15.1747C12.0064 15.4001 12.3444 15.5127 12.7691 15.5127ZM17.5306 16.1887V9.87072H18.5576V10.9367C18.7483 10.5554 19.0126 10.2651 19.3506 10.0657C19.6886 9.85772 20.083 9.75372 20.5336 9.75372C21.5216 9.75372 22.1543 10.1827 22.4316 11.0407C22.6223 10.6421 22.904 10.3301 23.2766 10.1047C23.6493 9.87072 24.0783 9.75372 24.5636 9.75372C25.9676 9.75372 26.6696 10.5857 26.6696 12.2497V16.1887H25.6166V12.3017C25.6166 11.7211 25.5126 11.2964 25.3046 11.0277C25.1053 10.7504 24.7716 10.6117 24.3036 10.6117C23.7923 10.6117 23.385 10.7937 23.0816 11.1577C22.7783 11.5217 22.6266 12.0071 22.6266 12.6137V16.1887H21.5736V12.3017C21.5736 11.7211 21.4696 11.2964 21.2616 11.0277C21.0623 10.7504 20.7286 10.6117 20.2606 10.6117C19.7406 10.6117 19.329 10.7937 19.0256 11.1577C18.731 11.5217 18.5836 12.0071 18.5836 12.6137V16.1887H17.5306ZM31.4854 16.3057C30.4888 16.3057 29.7001 16.0154 29.1194 15.4347C28.5388 14.8454 28.2484 14.0481 28.2484 13.0427C28.2484 12.3927 28.3784 11.8207 28.6384 11.3267C28.8984 10.8241 29.2538 10.4384 29.7044 10.1697C30.1638 9.89239 30.6924 9.75372 31.2904 9.75372C32.1484 9.75372 32.8201 10.0311 33.3054 10.5857C33.7908 11.1317 34.0334 11.8857 34.0334 12.8477V13.2507H29.2754C29.3101 13.9701 29.5181 14.5204 29.8994 14.9017C30.2808 15.2744 30.8094 15.4607 31.4854 15.4607C31.8668 15.4607 32.2308 15.4044 32.5774 15.2917C32.9241 15.1704 33.2534 14.9754 33.5654 14.7067L33.9294 15.4477C33.6434 15.7164 33.2794 15.9287 32.8374 16.0847C32.3954 16.2321 31.9448 16.3057 31.4854 16.3057ZM31.3164 10.5337C30.7184 10.5337 30.2461 10.7201 29.8994 11.0927C29.5528 11.4654 29.3491 11.9551 29.2884 12.5617H33.1234C33.0974 11.9204 32.9284 11.4221 32.6164 11.0667C32.3131 10.7114 31.8798 10.5337 31.3164 10.5337Z" fill="#363636" fill-opacity="0.5"/>
<rect x="0.284752" y="-0.284752" width="230.43" height="0.569503" transform="matrix(1 0 0 -1 289 53.8746)" stroke="#363636" stroke-opacity="0.3" stroke-width="0.569503"/>
<path d="M292.598 38.8298V34.1538L288.818 28.9598H290.162L293.2 33.1458L296.224 28.9598H297.526L293.746 34.1818V38.8298H292.598ZM300.124 38.9558C299.462 38.9558 298.888 38.8112 298.402 38.5218C297.917 38.2325 297.539 37.8265 297.268 37.3038C297.007 36.7718 296.876 36.1465 296.876 35.4278C296.876 34.7092 297.007 34.0885 297.268 33.5658C297.539 33.0338 297.917 32.6232 298.402 32.3338C298.888 32.0445 299.462 31.8998 300.124 31.8998C300.778 31.8998 301.347 32.0445 301.832 32.3338C302.327 32.6232 302.705 33.0338 302.966 33.5658C303.237 34.0885 303.372 34.7092 303.372 35.4278C303.372 36.1465 303.237 36.7718 302.966 37.3038C302.705 37.8265 302.327 38.2325 301.832 38.5218C301.347 38.8112 300.778 38.9558 300.124 38.9558ZM300.124 38.0458C300.759 38.0458 301.268 37.8218 301.65 37.3738C302.033 36.9165 302.224 36.2678 302.224 35.4278C302.224 34.5785 302.033 33.9298 301.65 33.4818C301.268 33.0338 300.759 32.8098 300.124 32.8098C299.48 32.8098 298.967 33.0338 298.584 33.4818C298.211 33.9298 298.024 34.5785 298.024 35.4278C298.024 36.2678 298.211 36.9165 298.584 37.3738C298.967 37.8218 299.48 38.0458 300.124 38.0458ZM307.484 38.9558C305.85 38.9558 305.034 38.0552 305.034 36.2538V32.0258H306.168V36.2398C306.168 36.8465 306.289 37.2945 306.532 37.5838C306.784 37.8732 307.176 38.0178 307.708 38.0178C308.286 38.0178 308.758 37.8265 309.122 37.4438C309.486 37.0518 309.668 36.5338 309.668 35.8898V32.0258H310.802V38.8298H309.696V37.6818C309.481 38.0925 309.178 38.4098 308.786 38.6338C308.403 38.8485 307.969 38.9558 307.484 38.9558ZM312.923 38.8298V32.0258H314.029V33.2438C314.393 32.4225 315.14 31.9698 316.269 31.8858L316.675 31.8438L316.759 32.8238L316.045 32.9078C315.401 32.9638 314.911 33.1692 314.575 33.5238C314.239 33.8692 314.071 34.3452 314.071 34.9518V38.8298H312.923ZM321.537 41.3498V32.0258H322.643V33.2438C322.848 32.8238 323.151 32.4972 323.553 32.2638C323.963 32.0212 324.439 31.8998 324.981 31.8998C325.587 31.8998 326.115 32.0445 326.563 32.3338C327.02 32.6138 327.37 33.0198 327.613 33.5518C327.865 34.0745 327.991 34.6998 327.991 35.4278C327.991 36.1465 327.865 36.7718 327.613 37.3038C327.37 37.8265 327.02 38.2325 326.563 38.5218C326.115 38.8112 325.587 38.9558 324.981 38.9558C324.458 38.9558 323.991 38.8392 323.581 38.6058C323.17 38.3725 322.867 38.0505 322.671 37.6398V41.3498H321.537ZM324.743 38.0458C325.377 38.0458 325.886 37.8218 326.269 37.3738C326.651 36.9165 326.843 36.2678 326.843 35.4278C326.843 34.5785 326.651 33.9298 326.269 33.4818C325.886 33.0338 325.377 32.8098 324.743 32.8098C324.108 32.8098 323.599 33.0338 323.217 33.4818C322.834 33.9298 322.643 34.5785 322.643 35.4278C322.643 36.2678 322.834 36.9165 323.217 37.3738C323.599 37.8218 324.108 38.0458 324.743 38.0458ZM329.699 38.8298V28.9598H330.833V33.1458C331.057 32.7352 331.37 32.4272 331.771 32.2218C332.182 32.0072 332.639 31.8998 333.143 31.8998C334.758 31.8998 335.565 32.7958 335.565 34.5878V38.8298H334.431V34.6578C334.431 34.0232 334.305 33.5612 334.053 33.2718C333.81 32.9732 333.418 32.8238 332.877 32.8238C332.252 32.8238 331.752 33.0198 331.379 33.4118C331.015 33.7945 330.833 34.3078 330.833 34.9518V38.8298H329.699ZM340.484 38.9558C339.821 38.9558 339.247 38.8112 338.762 38.5218C338.277 38.2325 337.899 37.8265 337.628 37.3038C337.367 36.7718 337.236 36.1465 337.236 35.4278C337.236 34.7092 337.367 34.0885 337.628 33.5658C337.899 33.0338 338.277 32.6232 338.762 32.3338C339.247 32.0445 339.821 31.8998 340.484 31.8998C341.137 31.8998 341.707 32.0445 342.192 32.3338C342.687 32.6232 343.065 33.0338 343.326 33.5658C343.597 34.0885 343.732 34.7092 343.732 35.4278C343.732 36.1465 343.597 36.7718 343.326 37.3038C343.065 37.8265 342.687 38.2325 342.192 38.5218C341.707 38.8112 341.137 38.9558 340.484 38.9558ZM340.484 38.0458C341.119 38.0458 341.627 37.8218 342.01 37.3738C342.393 36.9165 342.584 36.2678 342.584 35.4278C342.584 34.5785 342.393 33.9298 342.01 33.4818C341.627 33.0338 341.119 32.8098 340.484 32.8098C339.84 32.8098 339.327 33.0338 338.944 33.4818C338.571 33.9298 338.384 34.5785 338.384 35.4278C338.384 36.2678 338.571 36.9165 338.944 37.3738C339.327 37.8218 339.84 38.0458 340.484 38.0458ZM345.435 38.8298V32.0258H346.541V33.1878C346.765 32.7585 347.082 32.4365 347.493 32.2218C347.904 32.0072 348.366 31.8998 348.879 31.8998C350.494 31.8998 351.301 32.7958 351.301 34.5878V38.8298H350.167V34.6578C350.167 34.0232 350.041 33.5612 349.789 33.2718C349.546 32.9732 349.154 32.8238 348.613 32.8238C347.988 32.8238 347.488 33.0198 347.115 33.4118C346.751 33.7945 346.569 34.3078 346.569 34.9518V38.8298H345.435ZM356.458 38.9558C355.385 38.9558 354.536 38.6432 353.91 38.0178C353.285 37.3832 352.972 36.5245 352.972 35.4418C352.972 34.7418 353.112 34.1258 353.392 33.5938C353.672 33.0525 354.055 32.6372 354.54 32.3478C355.035 32.0492 355.604 31.8998 356.248 31.8998C357.172 31.8998 357.896 32.1985 358.418 32.7958C358.941 33.3838 359.202 34.1958 359.202 35.2318V35.6658H354.078C354.116 36.4405 354.34 37.0332 354.75 37.4438C355.161 37.8452 355.73 38.0458 356.458 38.0458C356.869 38.0458 357.261 37.9852 357.634 37.8638C358.008 37.7332 358.362 37.5232 358.698 37.2338L359.09 38.0318C358.782 38.3212 358.39 38.5498 357.914 38.7178C357.438 38.8765 356.953 38.9558 356.458 38.9558ZM356.276 32.7398C355.632 32.7398 355.124 32.9405 354.75 33.3418C354.377 33.7432 354.158 34.2705 354.092 34.9238H358.222C358.194 34.2332 358.012 33.6965 357.676 33.3138C357.35 32.9312 356.883 32.7398 356.276 32.7398ZM364.439 38.8298V32.0258H365.545V33.1878C365.769 32.7585 366.086 32.4365 366.497 32.2218C366.908 32.0072 367.37 31.8998 367.883 31.8998C369.498 31.8998 370.305 32.7958 370.305 34.5878V38.8298H369.171V34.6578C369.171 34.0232 369.045 33.5612 368.793 33.2718C368.55 32.9732 368.158 32.8238 367.617 32.8238C366.992 32.8238 366.492 33.0198 366.119 33.4118C365.755 33.7945 365.573 34.3078 365.573 34.9518V38.8298H364.439ZM374.804 38.9558C373.171 38.9558 372.354 38.0552 372.354 36.2538V32.0258H373.488V36.2398C373.488 36.8465 373.609 37.2945 373.852 37.5838C374.104 37.8732 374.496 38.0178 375.028 38.0178C375.607 38.0178 376.078 37.8265 376.442 37.4438C376.806 37.0518 376.988 36.5338 376.988 35.8898V32.0258H378.122V38.8298H377.016V37.6818C376.801 38.0925 376.498 38.4098 376.106 38.6338C375.723 38.8485 375.289 38.9558 374.804 38.9558ZM380.272 38.8298V32.0258H381.378V33.1738C381.583 32.7632 381.868 32.4505 382.232 32.2358C382.596 32.0118 383.02 31.8998 383.506 31.8998C384.57 31.8998 385.251 32.3618 385.55 33.2858C385.755 32.8565 386.058 32.5205 386.46 32.2778C386.861 32.0258 387.323 31.8998 387.846 31.8998C389.358 31.8998 390.114 32.7958 390.114 34.5878V38.8298H388.98V34.6438C388.98 34.0185 388.868 33.5612 388.644 33.2718C388.429 32.9732 388.07 32.8238 387.566 32.8238C387.015 32.8238 386.576 33.0198 386.25 33.4118C385.923 33.8038 385.76 34.3265 385.76 34.9798V38.8298H384.626V34.6438C384.626 34.0185 384.514 33.5612 384.29 33.2718C384.075 32.9732 383.716 32.8238 383.212 32.8238C382.652 32.8238 382.208 33.0198 381.882 33.4118C381.564 33.8038 381.406 34.3265 381.406 34.9798V38.8298H380.272ZM395.678 38.9558C395.137 38.9558 394.661 38.8345 394.25 38.5918C393.849 38.3492 393.545 38.0178 393.34 37.5978V38.8298H392.234V28.9598H393.368V33.2018C393.564 32.8005 393.867 32.4832 394.278 32.2498C394.689 32.0165 395.155 31.8998 395.678 31.8998C396.285 31.8998 396.812 32.0445 397.26 32.3338C397.717 32.6138 398.067 33.0198 398.31 33.5518C398.562 34.0745 398.688 34.6998 398.688 35.4278C398.688 36.1465 398.562 36.7718 398.31 37.3038C398.067 37.8265 397.717 38.2325 397.26 38.5218C396.812 38.8112 396.285 38.9558 395.678 38.9558ZM395.44 38.0458C396.075 38.0458 396.583 37.8218 396.966 37.3738C397.349 36.9165 397.54 36.2678 397.54 35.4278C397.54 34.5785 397.349 33.9298 396.966 33.4818C396.583 33.0338 396.075 32.8098 395.44 32.8098C394.805 32.8098 394.297 33.0338 393.914 33.4818C393.531 33.9298 393.34 34.5785 393.34 35.4278C393.34 36.2678 393.531 36.9165 393.914 37.3738C394.297 37.8218 394.805 38.0458 395.44 38.0458ZM403.462 38.9558C402.389 38.9558 401.539 38.6432 400.914 38.0178C400.289 37.3832 399.976 36.5245 399.976 35.4418C399.976 34.7418 400.116 34.1258 400.396 33.5938C400.676 33.0525 401.059 32.6372 401.544 32.3478C402.039 32.0492 402.608 31.8998 403.252 31.8998C404.176 31.8998 404.899 32.1985 405.422 32.7958C405.945 33.3838 406.206 34.1958 406.206 35.2318V35.6658H401.082C401.119 36.4405 401.343 37.0332 401.754 37.4438C402.165 37.8452 402.734 38.0458 403.462 38.0458C403.873 38.0458 404.265 37.9852 404.638 37.8638C405.011 37.7332 405.366 37.5232 405.702 37.2338L406.094 38.0318C405.786 38.3212 405.394 38.5498 404.918 38.7178C404.442 38.8765 403.957 38.9558 403.462 38.9558ZM403.28 32.7398C402.636 32.7398 402.127 32.9405 401.754 33.3418C401.381 33.7432 401.161 34.2705 401.096 34.9238H405.226C405.198 34.2332 405.016 33.6965 404.68 33.3138C404.353 32.9312 403.887 32.7398 403.28 32.7398ZM407.847 38.8298V32.0258H408.953V33.2438C409.317 32.4225 410.064 31.9698 411.193 31.8858L411.599 31.8438L411.683 32.8238L410.969 32.9078C410.325 32.9638 409.835 33.1692 409.499 33.5238C409.163 33.8692 408.995 34.3452 408.995 34.9518V38.8298H407.847ZM412.847 33.4538V32.0258H414.275V33.4538H412.847ZM412.847 38.8298V37.4018H414.275V38.8298H412.847Z" fill="#363636"/>
<path d="M290.138 16.2197L290.128 7.05466L293.755 7.04974C294.743 7.0484 295.497 7.28571 296.018 7.76167C296.547 8.23762 296.812 8.91759 296.813 9.80159C296.814 10.6769 296.55 11.3576 296.022 11.8437C295.502 12.321 294.749 12.5604 293.761 12.5617L291.2 12.5652L291.204 16.2182L290.138 16.2197ZM291.199 11.6682L293.63 11.6649C295.051 11.663 295.761 11.0424 295.76 9.80302C295.758 8.55502 295.047 7.93199 293.626 7.93391L291.195 7.93721L291.199 11.6682ZM298.221 16.2087L298.211 7.04369L299.264 7.04227L299.269 10.9293C299.476 10.5476 299.766 10.2613 300.139 10.0701C300.52 9.87023 300.944 9.76999 301.412 9.76936C302.912 9.76732 303.662 10.5983 303.664 12.2623L303.668 16.2013L302.615 16.2027L302.611 12.3287C302.61 11.7394 302.493 11.3106 302.259 11.0422C302.033 10.7652 301.669 10.627 301.166 10.6277C300.586 10.6285 300.122 10.8111 299.776 11.1756C299.438 11.5314 299.27 12.0083 299.27 12.6063L299.274 16.2073L298.221 16.2087ZM308.236 16.3121C307.621 16.3129 307.087 16.1793 306.636 15.9113C306.185 15.6432 305.834 15.2667 305.582 14.7817C305.339 14.288 305.217 13.7075 305.216 13.0402C305.216 12.3729 305.336 11.7964 305.579 11.3107C305.829 10.8164 306.18 10.4346 306.63 10.1653C307.081 9.896 307.614 9.76095 308.229 9.76011C308.836 9.75929 309.364 9.89291 309.815 10.161C310.275 10.429 310.626 10.8099 310.87 11.3035C311.121 11.7885 311.248 12.3647 311.248 13.032C311.249 13.6994 311.124 14.2802 310.873 14.7745C310.631 15.2602 310.28 15.6377 309.821 15.907C309.371 16.1762 308.843 16.3113 308.236 16.3121ZM308.235 15.4671C308.824 15.4663 309.296 15.2577 309.651 14.8412C310.006 14.416 310.183 13.8135 310.182 13.0335C310.182 12.2448 310.003 11.6427 309.648 11.2272C309.292 10.8117 308.819 10.6043 308.23 10.6051C307.632 10.6059 307.155 10.8146 306.801 11.2311C306.454 11.6475 306.282 12.2501 306.282 13.0388C306.283 13.8188 306.457 14.4209 306.804 14.8451C307.16 15.2606 307.637 15.4679 308.235 15.4671ZM312.833 16.1889L312.827 9.87088L313.854 9.86949L313.855 10.9485C314.062 10.5495 314.357 10.2501 314.738 10.0503C315.119 9.85044 315.548 9.75019 316.025 9.74954C317.524 9.74751 318.274 10.5785 318.276 12.2425L318.28 16.1815L317.227 16.1829L317.223 12.3089C317.223 11.7196 317.105 11.2907 316.871 11.0224C316.645 10.7454 316.281 10.6072 315.779 10.6079C315.198 10.6087 314.734 10.7913 314.388 11.1558C314.05 11.5116 313.882 11.9885 313.883 12.5865L313.886 16.1874L312.833 16.1889ZM323.069 16.292C322.072 16.2933 321.284 16.0041 320.702 15.4242C320.121 14.8357 319.83 14.0387 319.829 13.0334C319.828 12.3834 319.957 11.8112 320.217 11.3169C320.476 10.8138 320.831 10.4277 321.282 10.1584C321.741 9.88046 322.269 9.74108 322.867 9.74027C323.725 9.7391 324.397 10.0155 324.883 10.5695C325.369 11.1149 325.613 11.8685 325.614 12.8305L325.614 13.2335L320.856 13.24C320.891 13.9593 321.1 14.5093 321.482 14.8901C321.863 15.2623 322.392 15.4479 323.068 15.447C323.45 15.4465 323.814 15.3897 324.16 15.2765C324.507 15.1547 324.836 14.9593 325.147 14.6902L325.512 15.4307C325.227 15.6997 324.863 15.9126 324.421 16.0692C323.979 16.2171 323.528 16.2914 323.069 16.292ZM322.894 10.5202C322.296 10.521 321.824 10.708 321.478 11.0812C321.131 11.4543 320.928 11.9442 320.868 12.551L324.703 12.5458C324.677 11.9045 324.507 11.4064 324.195 11.0515C323.891 10.6965 323.457 10.5195 322.894 10.5202Z" fill="#363636" fill-opacity="0.5"/>
<defs>
<filter id="filter0_d_1_11163" x="554" y="0.910645" width="230" height="88.0894" filterUnits="userSpaceOnUse" color-interpolation-filters="sRGB">
<feFlood flood-opacity="0" result="BackgroundImageFix"/>
<feColorMatrix in="SourceAlpha" type="matrix" values="0 0 0 0 0 0 0 0 0 0 0 0 0 0 0 0 0 0 127 0" result="hardAlpha"/>
<feOffset dy="15"/>
<feGaussianBlur stdDeviation="7.5"/>
<feColorMatrix type="matrix" values="0 0 0 0 0.890196 0 0 0 0 0.721569 0 0 0 0 0.45098 0 0 0 0.15 0"/>
<feBlend mode="normal" in2="BackgroundImageFix" result="effect1_dropShadow_1_11163"/>
<feBlend mode="normal" in="SourceGraphic" in2="effect1_dropShadow_1_11163" result="shape"/>
</filter>
</defs>
</svg>
