<svg width="286" height="19" viewBox="0 0 286 19" fill="none" xmlns="http://www.w3.org/2000/svg">
<rect x="0.19043" y="0.148926" width="18" height="18" rx="1" fill="#E3B873"/>
<path d="M14.0366 5.68726L8.32504 11.3988L5.72888 8.80264" stroke="white" stroke-width="1.5"/>
<path d="M28.028 6.04064H29.176V15.9106H28.028V6.04064ZM37.8234 8.92464C38.6914 8.92464 39.3354 9.14864 39.7554 9.59664C40.1847 10.0353 40.3994 10.7073 40.3994 11.6126V15.9106H39.2934V14.7486C39.1161 15.15 38.8454 15.4626 38.4814 15.6866C38.1174 15.9013 37.6974 16.0086 37.2214 16.0086C36.7827 16.0086 36.3767 15.92 36.0034 15.7426C35.6394 15.5653 35.3501 15.318 35.1354 15.0006C34.9207 14.6833 34.8134 14.3333 34.8134 13.9506C34.8134 13.4373 34.9441 13.0406 35.2054 12.7606C35.4667 12.4713 35.8961 12.266 36.4934 12.1446C37.0907 12.014 37.9214 11.9486 38.9854 11.9486H39.2934V11.4866C39.2934 10.9173 39.1767 10.5066 38.9434 10.2546C38.7101 9.99331 38.3321 9.86264 37.8094 9.86264C37.0254 9.86264 36.2461 10.1053 35.4714 10.5906L35.0934 9.76464C35.4481 9.51264 35.8727 9.31198 36.3674 9.16264C36.8714 9.00398 37.3567 8.92464 37.8234 8.92464ZM37.3754 15.1126C37.9354 15.1126 38.3927 14.926 38.7474 14.5526C39.1114 14.17 39.2934 13.68 39.2934 13.0826V12.6766H39.0414C38.2201 12.6766 37.5947 12.714 37.1654 12.7886C36.7361 12.854 36.4281 12.9706 36.2414 13.1386C36.0641 13.2973 35.9754 13.5353 35.9754 13.8526C35.9754 14.2166 36.1061 14.52 36.3674 14.7626C36.6381 14.996 36.9741 15.1126 37.3754 15.1126ZM48.5792 9.09264V15.4486C48.5792 16.466 48.3179 17.2313 47.7952 17.7446C47.2726 18.2673 46.4979 18.5286 45.4712 18.5286C44.2766 18.5286 43.2732 18.2206 42.4612 17.6046L42.8392 16.7646C43.2966 17.0633 43.7259 17.278 44.1272 17.4086C44.5286 17.5393 44.9766 17.6046 45.4712 17.6046C46.1246 17.6046 46.6192 17.4273 46.9552 17.0726C47.2912 16.7273 47.4592 16.2186 47.4592 15.5466V14.3426C47.2632 14.7813 46.9599 15.1173 46.5492 15.3506C46.1479 15.584 45.6719 15.7006 45.1212 15.7006C44.5239 15.7006 43.9919 15.5606 43.5252 15.2806C43.0679 15.0006 42.7086 14.604 42.4472 14.0906C42.1952 13.5773 42.0692 12.9846 42.0692 12.3126C42.0692 11.6406 42.1952 11.048 42.4472 10.5346C42.7086 10.0213 43.0679 9.62464 43.5252 9.34464C43.9919 9.06464 44.5239 8.92464 45.1212 8.92464C45.6626 8.92464 46.1339 9.04131 46.5352 9.27464C46.9366 9.50798 47.2399 9.83931 47.4452 10.2686V9.09264H48.5792ZM45.3452 14.7626C45.9986 14.7626 46.5119 14.548 46.8852 14.1186C47.2586 13.68 47.4452 13.078 47.4452 12.3126C47.4452 11.5566 47.2586 10.964 46.8852 10.5346C46.5212 10.096 46.0079 9.87664 45.3452 9.87664C44.6826 9.87664 44.1599 10.096 43.7772 10.5346C43.4039 10.964 43.2172 11.5566 43.2172 12.3126C43.2172 13.078 43.4039 13.68 43.7772 14.1186C44.1599 14.548 44.6826 14.7626 45.3452 14.7626ZM54.5424 9.90464L53.8004 9.97464C53.1004 10.04 52.5917 10.2593 52.2744 10.6326C51.9664 11.006 51.8124 11.468 51.8124 12.0186V15.9106H50.6784V9.09264H51.7844V10.2826C52.167 9.48931 52.9184 9.04598 54.0384 8.95264L54.4444 8.92464L54.5424 9.90464ZM61.1892 12.6766H56.2052C56.2425 13.47 56.4572 14.072 56.8492 14.4826C57.2412 14.884 57.7965 15.0846 58.5152 15.0846C59.3085 15.0846 60.0365 14.814 60.6992 14.2726L61.0772 15.0986C60.7785 15.3786 60.3959 15.6026 59.9292 15.7706C59.4625 15.9293 58.9865 16.0086 58.5012 16.0086C57.4372 16.0086 56.5972 15.696 55.9812 15.0706C55.3745 14.4453 55.0712 13.582 55.0712 12.4806C55.0712 11.7806 55.2065 11.1646 55.4772 10.6326C55.7479 10.0913 56.1259 9.67131 56.6112 9.37264C57.1059 9.07398 57.6659 8.92464 58.2912 8.92464C59.1965 8.92464 59.9059 9.22331 60.4192 9.82064C60.9325 10.4086 61.1892 11.2206 61.1892 12.2566V12.6766ZM58.3052 9.80664C57.7079 9.80664 57.2272 9.99331 56.8632 10.3666C56.5085 10.74 56.2985 11.2673 56.2332 11.9486H60.1952C60.1765 11.258 60.0039 10.7306 59.6772 10.3666C59.3505 9.99331 58.8932 9.80664 58.3052 9.80664ZM68.572 12.6766H63.588C63.6253 13.47 63.84 14.072 64.232 14.4826C64.624 14.884 65.1793 15.0846 65.898 15.0846C66.6913 15.0846 67.4193 14.814 68.082 14.2726L68.46 15.0986C68.1613 15.3786 67.7787 15.6026 67.312 15.7706C66.8453 15.9293 66.3693 16.0086 65.884 16.0086C64.82 16.0086 63.98 15.696 63.364 15.0706C62.7573 14.4453 62.454 13.582 62.454 12.4806C62.454 11.7806 62.5893 11.1646 62.86 10.6326C63.1307 10.0913 63.5087 9.67131 63.994 9.37264C64.4887 9.07398 65.0487 8.92464 65.674 8.92464C66.5793 8.92464 67.2887 9.22331 67.802 9.82064C68.3153 10.4086 68.572 11.2206 68.572 12.2566V12.6766ZM65.688 9.80664C65.0907 9.80664 64.61 9.99331 64.246 10.3666C63.8913 10.74 63.6813 11.2673 63.616 11.9486H67.578C67.5593 11.258 67.3867 10.7306 67.06 10.3666C66.7333 9.99331 66.276 9.80664 65.688 9.80664ZM76.8482 15.0986C77.0535 15.0986 77.2589 15.0846 77.4642 15.0566L77.4082 15.9526C77.1935 15.99 76.9602 16.0086 76.7082 16.0086C75.8869 16.0086 75.2662 15.794 74.8462 15.3646C74.4355 14.9353 74.2302 14.338 74.2302 13.5726V9.98864H72.9002V9.09264H74.2302V7.02064H75.3642V9.09264H77.2962V9.98864H75.3642V13.4886C75.3642 14.562 75.8589 15.0986 76.8482 15.0986ZM81.438 16.0086C80.794 16.0086 80.2247 15.864 79.73 15.5746C79.2447 15.2853 78.8667 14.8746 78.596 14.3426C78.3347 13.8013 78.204 13.176 78.204 12.4666C78.204 11.7573 78.3347 11.1366 78.596 10.6046C78.8667 10.0633 79.2447 9.64798 79.73 9.35864C80.2247 9.06931 80.794 8.92464 81.438 8.92464C82.082 8.92464 82.6513 9.06931 83.146 9.35864C83.6407 9.64798 84.0187 10.0633 84.28 10.6046C84.5507 11.1366 84.686 11.7573 84.686 12.4666C84.686 13.176 84.5507 13.8013 84.28 14.3426C84.0187 14.8746 83.6407 15.2853 83.146 15.5746C82.6513 15.864 82.082 16.0086 81.438 16.0086ZM81.438 15.0706C82.11 15.0706 82.6233 14.8513 82.978 14.4126C83.342 13.9646 83.524 13.316 83.524 12.4666C83.524 11.636 83.342 10.9966 82.978 10.5486C82.614 10.0913 82.1007 9.86264 81.438 9.86264C80.7753 9.86264 80.262 10.0913 79.898 10.5486C79.534 10.9966 79.352 11.636 79.352 12.4666C79.352 13.3066 79.5293 13.9506 79.884 14.3986C80.248 14.8466 80.766 15.0706 81.438 15.0706ZM92.981 15.0986C93.1863 15.0986 93.3917 15.0846 93.597 15.0566L93.541 15.9526C93.3263 15.99 93.093 16.0086 92.841 16.0086C92.0197 16.0086 91.399 15.794 90.979 15.3646C90.5683 14.9353 90.363 14.338 90.363 13.5726V9.98864H89.033V9.09264H90.363V7.02064H91.497V9.09264H93.429V9.98864H91.497V13.4886C91.497 14.562 91.9917 15.0986 92.981 15.0986ZM98.1728 8.92464C99.8061 8.92464 100.623 9.82531 100.623 11.6266V15.9106H99.4888V11.6966C99.4888 11.062 99.3628 10.6 99.1108 10.3106C98.8681 10.0213 98.4761 9.87664 97.9348 9.87664C97.3095 9.87664 96.8101 10.068 96.4368 10.4506C96.0635 10.8333 95.8768 11.3513 95.8768 12.0046V15.9106H94.7428V6.04064H95.8768V10.1846C96.1008 9.77398 96.4088 9.46131 96.8008 9.24664C97.2021 9.03198 97.6595 8.92464 98.1728 8.92464ZM108.412 12.6766H103.428C103.465 13.47 103.68 14.072 104.072 14.4826C104.464 14.884 105.019 15.0846 105.738 15.0846C106.531 15.0846 107.259 14.814 107.922 14.2726L108.3 15.0986C108.001 15.3786 107.619 15.6026 107.152 15.7706C106.685 15.9293 106.209 16.0086 105.724 16.0086C104.66 16.0086 103.82 15.696 103.204 15.0706C102.597 14.4453 102.294 13.582 102.294 12.4806C102.294 11.7806 102.429 11.1646 102.7 10.6326C102.971 10.0913 103.349 9.67131 103.834 9.37264C104.329 9.07398 104.889 8.92464 105.514 8.92464C106.419 8.92464 107.129 9.22331 107.642 9.82064C108.155 10.4086 108.412 11.2206 108.412 12.2566V12.6766ZM105.528 9.80664C104.931 9.80664 104.45 9.99331 104.086 10.3666C103.731 10.74 103.521 11.2673 103.456 11.9486H107.418C107.399 11.258 107.227 10.7306 106.9 10.3666C106.573 9.99331 106.116 9.80664 105.528 9.80664ZM117.122 8.92464C117.719 8.92464 118.247 9.07398 118.704 9.37264C119.161 9.67131 119.516 10.0913 119.768 10.6326C120.02 11.1646 120.146 11.7853 120.146 12.4946C120.146 13.204 120.02 13.8246 119.768 14.3566C119.516 14.8793 119.161 15.2853 118.704 15.5746C118.256 15.864 117.729 16.0086 117.122 16.0086C116.59 16.0086 116.123 15.892 115.722 15.6586C115.33 15.4253 115.031 15.094 114.826 14.6646V18.4306H113.692V9.09264H114.826V10.2686C115.031 9.83931 115.33 9.50798 115.722 9.27464C116.123 9.04131 116.59 8.92464 117.122 8.92464ZM116.898 15.0706C117.561 15.0706 118.074 14.8466 118.438 14.3986C118.802 13.9506 118.984 13.316 118.984 12.4946C118.984 11.6733 118.802 11.034 118.438 10.5766C118.074 10.11 117.561 9.87664 116.898 9.87664C116.235 9.87664 115.722 10.1006 115.358 10.5486C115.003 10.9966 114.826 11.636 114.826 12.4666C114.826 13.2973 115.003 13.9413 115.358 14.3986C115.722 14.8466 116.235 15.0706 116.898 15.0706ZM125.704 9.90464L124.962 9.97464C124.262 10.04 123.754 10.2593 123.436 10.6326C123.128 11.006 122.974 11.468 122.974 12.0186V15.9106H121.84V9.09264H122.946V10.2826C123.329 9.48931 124.08 9.04598 125.2 8.95264L125.606 8.92464L125.704 9.90464ZM129.467 16.0086C128.823 16.0086 128.254 15.864 127.759 15.5746C127.274 15.2853 126.896 14.8746 126.625 14.3426C126.364 13.8013 126.233 13.176 126.233 12.4666C126.233 11.7573 126.364 11.1366 126.625 10.6046C126.896 10.0633 127.274 9.64798 127.759 9.35864C128.254 9.06931 128.823 8.92464 129.467 8.92464C130.111 8.92464 130.681 9.06931 131.175 9.35864C131.67 9.64798 132.048 10.0633 132.309 10.6046C132.58 11.1366 132.715 11.7573 132.715 12.4666C132.715 13.176 132.58 13.8013 132.309 14.3426C132.048 14.8746 131.67 15.2853 131.175 15.5746C130.681 15.864 130.111 16.0086 129.467 16.0086ZM129.467 15.0706C130.139 15.0706 130.653 14.8513 131.007 14.4126C131.371 13.9646 131.553 13.316 131.553 12.4666C131.553 11.636 131.371 10.9966 131.007 10.5486C130.643 10.0913 130.13 9.86264 129.467 9.86264C128.805 9.86264 128.291 10.0913 127.927 10.5486C127.563 10.9966 127.381 11.636 127.381 12.4666C127.381 13.3066 127.559 13.9506 127.913 14.3986C128.277 14.8466 128.795 15.0706 129.467 15.0706ZM137.289 16.0086C136.617 16.0086 136.034 15.864 135.539 15.5746C135.044 15.2853 134.662 14.8793 134.391 14.3566C134.13 13.8246 133.999 13.204 133.999 12.4946C133.999 11.7853 134.134 11.1646 134.405 10.6326C134.685 10.0913 135.072 9.67131 135.567 9.37264C136.071 9.07398 136.659 8.92464 137.331 8.92464C137.788 8.92464 138.236 9.00864 138.675 9.17664C139.114 9.33531 139.468 9.54998 139.739 9.82064L139.361 10.6606C138.717 10.138 138.064 9.87664 137.401 9.87664C136.701 9.87664 136.155 10.1053 135.763 10.5626C135.371 11.02 135.175 11.664 135.175 12.4946C135.175 13.316 135.371 13.9506 135.763 14.3986C136.155 14.8466 136.701 15.0706 137.401 15.0706C138.064 15.0706 138.717 14.8093 139.361 14.2866L139.739 15.1266C139.45 15.3973 139.086 15.612 138.647 15.7706C138.208 15.9293 137.756 16.0086 137.289 16.0086ZM146.816 12.6766H141.832C141.869 13.47 142.084 14.072 142.476 14.4826C142.868 14.884 143.423 15.0846 144.142 15.0846C144.935 15.0846 145.663 14.814 146.326 14.2726L146.704 15.0986C146.405 15.3786 146.023 15.6026 145.556 15.7706C145.089 15.9293 144.613 16.0086 144.128 16.0086C143.064 16.0086 142.224 15.696 141.608 15.0706C141.001 14.4453 140.698 13.582 140.698 12.4806C140.698 11.7806 140.833 11.1646 141.104 10.6326C141.375 10.0913 141.753 9.67131 142.238 9.37264C142.733 9.07398 143.293 8.92464 143.918 8.92464C144.823 8.92464 145.533 9.22331 146.046 9.82064C146.559 10.4086 146.816 11.2206 146.816 12.2566V12.6766ZM143.932 9.80664C143.335 9.80664 142.854 9.99331 142.49 10.3666C142.135 10.74 141.925 11.2673 141.86 11.9486H145.822C145.803 11.258 145.631 10.7306 145.304 10.3666C144.977 9.99331 144.52 9.80664 143.932 9.80664ZM150.797 16.0086C149.649 16.0086 148.739 15.7146 148.067 15.1266L148.445 14.2866C148.809 14.576 149.178 14.786 149.551 14.9166C149.934 15.038 150.363 15.0986 150.839 15.0986C151.343 15.0986 151.726 15.0146 151.987 14.8466C152.258 14.6693 152.393 14.4173 152.393 14.0906C152.393 13.82 152.304 13.6053 152.127 13.4466C151.95 13.288 151.656 13.162 151.245 13.0686L150.097 12.8026C149.518 12.672 149.075 12.448 148.767 12.1306C148.459 11.8133 148.305 11.4213 148.305 10.9546C148.305 10.348 148.543 9.85798 149.019 9.48464C149.495 9.11131 150.13 8.92464 150.923 8.92464C151.399 8.92464 151.852 9.00398 152.281 9.16264C152.71 9.31198 153.07 9.53131 153.359 9.82064L152.981 10.6466C152.356 10.1146 151.67 9.84864 150.923 9.84864C150.447 9.84864 150.074 9.94198 149.803 10.1286C149.542 10.306 149.411 10.558 149.411 10.8846C149.411 11.1553 149.49 11.3746 149.649 11.5426C149.817 11.7013 150.083 11.8226 150.447 11.9066L151.609 12.1866C152.244 12.336 152.715 12.5646 153.023 12.8726C153.331 13.1713 153.485 13.5633 153.485 14.0486C153.485 14.646 153.242 15.122 152.757 15.4766C152.281 15.8313 151.628 16.0086 150.797 16.0086ZM157.524 16.0086C156.376 16.0086 155.466 15.7146 154.794 15.1266L155.172 14.2866C155.536 14.576 155.904 14.786 156.278 14.9166C156.66 15.038 157.09 15.0986 157.566 15.0986C158.07 15.0986 158.452 15.0146 158.714 14.8466C158.984 14.6693 159.12 14.4173 159.12 14.0906C159.12 13.82 159.031 13.6053 158.854 13.4466C158.676 13.288 158.382 13.162 157.972 13.0686L156.824 12.8026C156.245 12.672 155.802 12.448 155.494 12.1306C155.186 11.8133 155.032 11.4213 155.032 10.9546C155.032 10.348 155.27 9.85798 155.746 9.48464C156.222 9.11131 156.856 8.92464 157.65 8.92464C158.126 8.92464 158.578 9.00398 159.008 9.16264C159.437 9.31198 159.796 9.53131 160.086 9.82064L159.708 10.6466C159.082 10.1146 158.396 9.84864 157.65 9.84864C157.174 9.84864 156.8 9.94198 156.53 10.1286C156.268 10.306 156.138 10.558 156.138 10.8846C156.138 11.1553 156.217 11.3746 156.376 11.5426C156.544 11.7013 156.81 11.8226 157.174 11.9066L158.336 12.1866C158.97 12.336 159.442 12.5646 159.75 12.8726C160.058 13.1713 160.212 13.5633 160.212 14.0486C160.212 14.646 159.969 15.122 159.484 15.4766C159.008 15.8313 158.354 16.0086 157.524 16.0086ZM161.94 9.09264H163.074V15.9106H161.94V9.09264ZM163.2 6.13864V7.41264H161.828V6.13864H163.2ZM168.624 8.92464C170.257 8.92464 171.074 9.82531 171.074 11.6266V15.9106H169.94V11.6966C169.94 11.062 169.814 10.6 169.562 10.3106C169.319 10.0213 168.927 9.87664 168.386 9.87664C167.761 9.87664 167.261 10.068 166.888 10.4506C166.515 10.8333 166.328 11.3513 166.328 12.0046V15.9106H165.194V9.09264H166.314V10.2126C166.538 9.79264 166.851 9.47531 167.252 9.26064C167.653 9.03664 168.111 8.92464 168.624 8.92464ZM179.255 9.09264V15.4486C179.255 16.466 178.994 17.2313 178.471 17.7446C177.948 18.2673 177.174 18.5286 176.147 18.5286C174.952 18.5286 173.949 18.2206 173.137 17.6046L173.515 16.7646C173.972 17.0633 174.402 17.278 174.803 17.4086C175.204 17.5393 175.652 17.6046 176.147 17.6046C176.8 17.6046 177.295 17.4273 177.631 17.0726C177.967 16.7273 178.135 16.2186 178.135 15.5466V14.3426C177.939 14.7813 177.636 15.1173 177.225 15.3506C176.824 15.584 176.348 15.7006 175.797 15.7006C175.2 15.7006 174.668 15.5606 174.201 15.2806C173.744 15.0006 173.384 14.604 173.123 14.0906C172.871 13.5773 172.745 12.9846 172.745 12.3126C172.745 11.6406 172.871 11.048 173.123 10.5346C173.384 10.0213 173.744 9.62464 174.201 9.34464C174.668 9.06464 175.2 8.92464 175.797 8.92464C176.338 8.92464 176.81 9.04131 177.211 9.27464C177.612 9.50798 177.916 9.83931 178.121 10.2686V9.09264H179.255ZM176.021 14.7626C176.674 14.7626 177.188 14.548 177.561 14.1186C177.934 13.68 178.121 13.078 178.121 12.3126C178.121 11.5566 177.934 10.964 177.561 10.5346C177.197 10.096 176.684 9.87664 176.021 9.87664C175.358 9.87664 174.836 10.096 174.453 10.5346C174.08 10.964 173.893 11.5566 173.893 12.3126C173.893 13.078 174.08 13.68 174.453 14.1186C174.836 14.548 175.358 14.7626 176.021 14.7626ZM187.792 16.0086C187.148 16.0086 186.578 15.864 186.084 15.5746C185.598 15.2853 185.22 14.8746 184.95 14.3426C184.688 13.8013 184.558 13.176 184.558 12.4666C184.558 11.7573 184.688 11.1366 184.95 10.6046C185.22 10.0633 185.598 9.64798 186.084 9.35864C186.578 9.06931 187.148 8.92464 187.792 8.92464C188.436 8.92464 189.005 9.06931 189.5 9.35864C189.994 9.64798 190.372 10.0633 190.634 10.6046C190.904 11.1366 191.04 11.7573 191.04 12.4666C191.04 13.176 190.904 13.8013 190.634 14.3426C190.372 14.8746 189.994 15.2853 189.5 15.5746C189.005 15.864 188.436 16.0086 187.792 16.0086ZM187.792 15.0706C188.464 15.0706 188.977 14.8513 189.332 14.4126C189.696 13.9646 189.878 13.316 189.878 12.4666C189.878 11.636 189.696 10.9966 189.332 10.5486C188.968 10.0913 188.454 9.86264 187.792 9.86264C187.129 9.86264 186.616 10.0913 186.252 10.5486C185.888 10.9966 185.706 11.636 185.706 12.4666C185.706 13.3066 185.883 13.9506 186.238 14.3986C186.602 14.8466 187.12 15.0706 187.792 15.0706ZM194.227 9.09264H196.159V9.98864H194.227V15.9106H193.093V9.98864H191.763V9.09264H193.093V8.86864C193.093 7.96331 193.317 7.27731 193.765 6.81064C194.223 6.34398 194.923 6.08264 195.865 6.02664L196.425 5.99864L196.509 6.88064L195.865 6.92264C195.296 6.95998 194.881 7.12331 194.619 7.41264C194.358 7.69264 194.227 8.12664 194.227 8.71464V9.09264ZM204.349 8.92464C204.946 8.92464 205.473 9.07398 205.931 9.37264C206.388 9.67131 206.743 10.0913 206.995 10.6326C207.247 11.1646 207.373 11.7853 207.373 12.4946C207.373 13.204 207.247 13.8246 206.995 14.3566C206.743 14.8793 206.388 15.2853 205.931 15.5746C205.483 15.864 204.955 16.0086 204.349 16.0086C203.817 16.0086 203.35 15.892 202.949 15.6586C202.557 15.4253 202.258 15.094 202.053 14.6646V18.4306H200.919V9.09264H202.053V10.2686C202.258 9.83931 202.557 9.50798 202.949 9.27464C203.35 9.04131 203.817 8.92464 204.349 8.92464ZM204.125 15.0706C204.787 15.0706 205.301 14.8466 205.665 14.3986C206.029 13.9506 206.211 13.316 206.211 12.4946C206.211 11.6733 206.029 11.034 205.665 10.5766C205.301 10.11 204.787 9.87664 204.125 9.87664C203.462 9.87664 202.949 10.1006 202.585 10.5486C202.23 10.9966 202.053 11.636 202.053 12.4666C202.053 13.2973 202.23 13.9413 202.585 14.3986C202.949 14.8466 203.462 15.0706 204.125 15.0706ZM214.779 12.6766H209.795C209.832 13.47 210.047 14.072 210.439 14.4826C210.831 14.884 211.386 15.0846 212.105 15.0846C212.898 15.0846 213.626 14.814 214.289 14.2726L214.667 15.0986C214.368 15.3786 213.986 15.6026 213.519 15.7706C213.052 15.9293 212.576 16.0086 212.091 16.0086C211.027 16.0086 210.187 15.696 209.571 15.0706C208.964 14.4453 208.661 13.582 208.661 12.4806C208.661 11.7806 208.796 11.1646 209.067 10.6326C209.338 10.0913 209.716 9.67131 210.201 9.37264C210.696 9.07398 211.256 8.92464 211.881 8.92464C212.786 8.92464 213.496 9.22331 214.009 9.82064C214.522 10.4086 214.779 11.2206 214.779 12.2566V12.6766ZM211.895 9.80664C211.298 9.80664 210.817 9.99331 210.453 10.3666C210.098 10.74 209.888 11.2673 209.823 11.9486H213.785C213.766 11.258 213.594 10.7306 213.267 10.3666C212.94 9.99331 212.483 9.80664 211.895 9.80664ZM220.314 9.90464L219.572 9.97464C218.872 10.04 218.363 10.2593 218.046 10.6326C217.738 11.006 217.584 11.468 217.584 12.0186V15.9106H216.45V9.09264H217.556V10.2826C217.939 9.48931 218.69 9.04598 219.81 8.95264L220.216 8.92464L220.314 9.90464ZM223.627 16.0086C222.479 16.0086 221.569 15.7146 220.897 15.1266L221.275 14.2866C221.639 14.576 222.008 14.786 222.381 14.9166C222.764 15.038 223.193 15.0986 223.669 15.0986C224.173 15.0986 224.556 15.0146 224.817 14.8466C225.088 14.6693 225.223 14.4173 225.223 14.0906C225.223 13.82 225.134 13.6053 224.957 13.4466C224.78 13.288 224.486 13.162 224.075 13.0686L222.927 12.8026C222.348 12.672 221.905 12.448 221.597 12.1306C221.289 11.8133 221.135 11.4213 221.135 10.9546C221.135 10.348 221.373 9.85798 221.849 9.48464C222.325 9.11131 222.96 8.92464 223.753 8.92464C224.229 8.92464 224.682 9.00398 225.111 9.16264C225.54 9.31198 225.9 9.53131 226.189 9.82064L225.811 10.6466C225.186 10.1146 224.5 9.84864 223.753 9.84864C223.277 9.84864 222.904 9.94198 222.633 10.1286C222.372 10.306 222.241 10.558 222.241 10.8846C222.241 11.1553 222.32 11.3746 222.479 11.5426C222.647 11.7013 222.913 11.8226 223.277 11.9066L224.439 12.1866C225.074 12.336 225.545 12.5646 225.853 12.8726C226.161 13.1713 226.315 13.5633 226.315 14.0486C226.315 14.646 226.072 15.122 225.587 15.4766C225.111 15.8313 224.458 16.0086 223.627 16.0086ZM230.872 16.0086C230.228 16.0086 229.658 15.864 229.164 15.5746C228.678 15.2853 228.3 14.8746 228.03 14.3426C227.768 13.8013 227.638 13.176 227.638 12.4666C227.638 11.7573 227.768 11.1366 228.03 10.6046C228.3 10.0633 228.678 9.64798 229.164 9.35864C229.658 9.06931 230.228 8.92464 230.872 8.92464C231.516 8.92464 232.085 9.06931 232.58 9.35864C233.074 9.64798 233.452 10.0633 233.714 10.6046C233.984 11.1366 234.12 11.7573 234.12 12.4666C234.12 13.176 233.984 13.8013 233.714 14.3426C233.452 14.8746 233.074 15.2853 232.58 15.5746C232.085 15.864 231.516 16.0086 230.872 16.0086ZM230.872 15.0706C231.544 15.0706 232.057 14.8513 232.412 14.4126C232.776 13.9646 232.958 13.316 232.958 12.4666C232.958 11.636 232.776 10.9966 232.412 10.5486C232.048 10.0913 231.534 9.86264 230.872 9.86264C230.209 9.86264 229.696 10.0913 229.332 10.5486C228.968 10.9966 228.786 11.636 228.786 12.4666C228.786 13.3066 228.963 13.9506 229.318 14.3986C229.682 14.8466 230.2 15.0706 230.872 15.0706ZM239.239 8.92464C240.873 8.92464 241.689 9.82531 241.689 11.6266V15.9106H240.555V11.6966C240.555 11.062 240.429 10.6 240.177 10.3106C239.935 10.0213 239.543 9.87664 239.001 9.87664C238.376 9.87664 237.877 10.068 237.503 10.4506C237.13 10.8333 236.943 11.3513 236.943 12.0046V15.9106H235.809V9.09264H236.929V10.2126C237.153 9.79264 237.466 9.47531 237.867 9.26064C238.269 9.03664 238.726 8.92464 239.239 8.92464ZM246.538 8.92464C247.406 8.92464 248.05 9.14864 248.47 9.59664C248.9 10.0353 249.114 10.7073 249.114 11.6126V15.9106H248.008V14.7486C247.831 15.15 247.56 15.4626 247.196 15.6866C246.832 15.9013 246.412 16.0086 245.936 16.0086C245.498 16.0086 245.092 15.92 244.718 15.7426C244.354 15.5653 244.065 15.318 243.85 15.0006C243.636 14.6833 243.528 14.3333 243.528 13.9506C243.528 13.4373 243.659 13.0406 243.92 12.7606C244.182 12.4713 244.611 12.266 245.208 12.1446C245.806 12.014 246.636 11.9486 247.7 11.9486H248.008V11.4866C248.008 10.9173 247.892 10.5066 247.658 10.2546C247.425 9.99331 247.047 9.86264 246.524 9.86264C245.74 9.86264 244.961 10.1053 244.186 10.5906L243.808 9.76464C244.163 9.51264 244.588 9.31198 245.082 9.16264C245.586 9.00398 246.072 8.92464 246.538 8.92464ZM246.09 15.1126C246.65 15.1126 247.108 14.926 247.462 14.5526C247.826 14.17 248.008 13.68 248.008 13.0826V12.6766H247.756C246.935 12.6766 246.31 12.714 245.88 12.7886C245.451 12.854 245.143 12.9706 244.956 13.1386C244.779 13.2973 244.69 13.5353 244.69 13.8526C244.69 14.2166 244.821 14.52 245.082 14.7626C245.353 14.996 245.689 15.1126 246.09 15.1126ZM251.19 6.04064H252.324V15.9106H251.19V6.04064ZM264.101 6.04064V15.9106H262.967V14.6646C262.762 15.094 262.459 15.4253 262.057 15.6586C261.665 15.892 261.203 16.0086 260.671 16.0086C260.074 16.0086 259.547 15.8593 259.089 15.5606C258.632 15.262 258.277 14.8466 258.025 14.3146C257.773 13.7733 257.647 13.148 257.647 12.4386C257.647 11.7386 257.773 11.1226 258.025 10.5906C258.277 10.0586 258.632 9.64798 259.089 9.35864C259.547 9.06931 260.074 8.92464 260.671 8.92464C261.203 8.92464 261.665 9.04131 262.057 9.27464C262.459 9.50798 262.762 9.83931 262.967 10.2686V6.04064H264.101ZM260.895 15.0706C261.558 15.0706 262.067 14.8466 262.421 14.3986C262.785 13.9413 262.967 13.2973 262.967 12.4666C262.967 11.636 262.785 10.9966 262.421 10.5486C262.067 10.1006 261.558 9.87664 260.895 9.87664C260.233 9.87664 259.715 10.1006 259.341 10.5486C258.977 10.9966 258.795 11.6266 258.795 12.4386C258.795 13.2693 258.977 13.918 259.341 14.3846C259.715 14.842 260.233 15.0706 260.895 15.0706ZM268.974 8.92464C269.842 8.92464 270.486 9.14864 270.906 9.59664C271.335 10.0353 271.55 10.7073 271.55 11.6126V15.9106H270.444V14.7486C270.266 15.15 269.996 15.4626 269.632 15.6866C269.268 15.9013 268.848 16.0086 268.372 16.0086C267.933 16.0086 267.527 15.92 267.154 15.7426C266.79 15.5653 266.5 15.318 266.286 15.0006C266.071 14.6833 265.964 14.3333 265.964 13.9506C265.964 13.4373 266.094 13.0406 266.356 12.7606C266.617 12.4713 267.046 12.266 267.644 12.1446C268.241 12.014 269.072 11.9486 270.136 11.9486H270.444V11.4866C270.444 10.9173 270.327 10.5066 270.094 10.2546C269.86 9.99331 269.482 9.86264 268.96 9.86264C268.176 9.86264 267.396 10.1053 266.622 10.5906L266.244 9.76464C266.598 9.51264 267.023 9.31198 267.518 9.16264C268.022 9.00398 268.507 8.92464 268.974 8.92464ZM268.526 15.1126C269.086 15.1126 269.543 14.926 269.898 14.5526C270.262 14.17 270.444 13.68 270.444 13.0826V12.6766H270.192C269.37 12.6766 268.745 12.714 268.316 12.7886C267.886 12.854 267.578 12.9706 267.392 13.1386C267.214 13.2973 267.126 13.5353 267.126 13.8526C267.126 14.2166 267.256 14.52 267.518 14.7626C267.788 14.996 268.124 15.1126 268.526 15.1126ZM276.622 15.0986C276.827 15.0986 277.032 15.0846 277.238 15.0566L277.182 15.9526C276.967 15.99 276.734 16.0086 276.482 16.0086C275.66 16.0086 275.04 15.794 274.62 15.3646C274.209 14.9353 274.004 14.338 274.004 13.5726V9.98864H272.674V9.09264H274.004V7.02064H275.138V9.09264H277.07V9.98864H275.138V13.4886C275.138 14.562 275.632 15.0986 276.622 15.0986ZM281.155 8.92464C282.023 8.92464 282.667 9.14864 283.087 9.59664C283.517 10.0353 283.731 10.7073 283.731 11.6126V15.9106H282.625V14.7486C282.448 15.15 282.177 15.4626 281.813 15.6866C281.449 15.9013 281.029 16.0086 280.553 16.0086C280.115 16.0086 279.709 15.92 279.335 15.7426C278.971 15.5653 278.682 15.318 278.467 15.0006C278.253 14.6833 278.145 14.3333 278.145 13.9506C278.145 13.4373 278.276 13.0406 278.537 12.7606C278.799 12.4713 279.228 12.266 279.825 12.1446C280.423 12.014 281.253 11.9486 282.317 11.9486H282.625V11.4866C282.625 10.9173 282.509 10.5066 282.275 10.2546C282.042 9.99331 281.664 9.86264 281.141 9.86264C280.357 9.86264 279.578 10.1053 278.803 10.5906L278.425 9.76464C278.78 9.51264 279.205 9.31198 279.699 9.16264C280.203 9.00398 280.689 8.92464 281.155 8.92464ZM280.707 15.1126C281.267 15.1126 281.725 14.926 282.079 14.5526C282.443 14.17 282.625 13.68 282.625 13.0826V12.6766H282.373C281.552 12.6766 280.927 12.714 280.497 12.7886C280.068 12.854 279.76 12.9706 279.573 13.1386C279.396 13.2973 279.307 13.5353 279.307 13.8526C279.307 14.2166 279.438 14.52 279.699 14.7626C279.97 14.996 280.306 15.1126 280.707 15.1126Z" fill="#181818"/>
</svg>
